<?xml version="1.0" encoding="UTF-8" standalone="no"?>
<!DOCTYPE svg PUBLIC "-//W3C//DTD SVG 1.1//EN"
 "http://www.w3.org/Graphics/SVG/1.1/DTD/svg11.dtd">
<!-- Generated by graphviz version 2.26.3 (20100126.1600)
 -->
<!-- Title: controllers_diagram Pages: 1 -->
<svg width="676pt" height="487pt"
 viewBox="0.00 0.00 676.00 487.00" xmlns="http://www.w3.org/2000/svg" xmlns:xlink="http://www.w3.org/1999/xlink">
<g id="graph1" class="graph" transform="scale(1 1) rotate(0) translate(4 483)">
<title>controllers_diagram</title>
<polygon fill="white" stroke="white" points="-4,5 -4,-483 673,-483 673,5 -4,5"/>
<!-- _diagram_info -->
<g id="node1" class="node"><title>_diagram_info</title>
<text text-anchor="start" x="425" y="-462.3" font-family="Times Roman,serif" font-size="13.00">Controllers diagram</text>
<text text-anchor="start" x="425" y="-445.3" font-family="Times Roman,serif" font-size="13.00">Date: May 20 2014 &#45; 07:30</text>
<text text-anchor="start" x="425" y="-428.3" font-family="Times Roman,serif" font-size="13.00">Migration version: 20140428095655</text>
<text text-anchor="start" x="425" y="-411.3" font-family="Times Roman,serif" font-size="13.00">Generated by RailRoady 1.1.1</text>
<text text-anchor="start" x="425" y="-394.3" font-family="Times Roman,serif" font-size="13.00">http://railroady.prestonlee.com</text>
</g>
<!-- ApplicationController -->
<g id="node2" class="node"><title>ApplicationController</title>
<polyline fill="none" stroke="black" points="154.679,-161.599 368.679,-161.599 "/>
<path fill="none" stroke="black" d="M368.679,-161.599C374.679,-161.599 380.679,-167.599 380.679,-173.599"/>
<polyline fill="none" stroke="black" points="380.679,-173.599 380.679,-323.599 "/>
<path fill="none" stroke="black" d="M380.679,-323.599C380.679,-329.599 374.679,-335.599 368.679,-335.599"/>
<polyline fill="none" stroke="black" points="368.679,-335.599 154.679,-335.599 "/>
<path fill="none" stroke="black" d="M154.679,-335.599C148.679,-335.599 142.679,-329.599 142.679,-323.599"/>
<polyline fill="none" stroke="black" points="142.679,-323.599 142.679,-173.599 "/>
<path fill="none" stroke="black" d="M142.679,-173.599C142.679,-167.599 148.679,-161.599 154.679,-161.599"/>
<text text-anchor="middle" x="261.679" y="-318.999" font-family="Times Roman,serif" font-size="14.00">ApplicationController</text>
<polyline fill="none" stroke="black" points="142.679,-309.599 380.679,-309.599 "/>
<text text-anchor="start" x="150.679" y="-292.999" font-family="Times Roman,serif" font-size="14.00">_one_time_conditions_valid_10?</text>
<text text-anchor="start" x="150.679" y="-274.999" font-family="Times Roman,serif" font-size="14.00">_one_time_conditions_valid_12?</text>
<text text-anchor="start" x="150.679" y="-256.999" font-family="Times Roman,serif" font-size="14.00">authenticate_admin_user!</text>
<text text-anchor="start" x="150.679" y="-238.999" font-family="Times Roman,serif" font-size="14.00">current_admin_user</text>
<text text-anchor="start" x="150.679" y="-220.999" font-family="Times Roman,serif" font-size="14.00">list_stage</text>
<polyline fill="none" stroke="black" points="142.679,-211.599 380.679,-211.599 "/>
<polyline fill="none" stroke="black" points="142.679,-187.599 380.679,-187.599 "/>
<text text-anchor="start" x="150.679" y="-170.999" font-family="Times Roman,serif" font-size="14.00">_layout</text>
</g>
<!-- StaticPagesController -->
<g id="node3" class="node"><title>StaticPagesController</title>
<polyline fill="none" stroke="black" points="251.281,-38.6655 392.281,-38.6655 "/>
<path fill="none" stroke="black" d="M392.281,-38.6655C398.281,-38.6655 404.281,-44.6655 404.281,-50.6655"/>
<polyline fill="none" stroke="black" points="404.281,-50.6655 404.281,-126.666 "/>
<path fill="none" stroke="black" d="M404.281,-126.666C404.281,-132.666 398.281,-138.666 392.281,-138.666"/>
<polyline fill="none" stroke="black" points="392.281,-138.666 251.281,-138.666 "/>
<path fill="none" stroke="black" d="M251.281,-138.666C245.281,-138.666 239.281,-132.666 239.281,-126.666"/>
<polyline fill="none" stroke="black" points="239.281,-126.666 239.281,-50.6655 "/>
<path fill="none" stroke="black" d="M239.281,-50.6655C239.281,-44.6655 245.281,-38.6655 251.281,-38.6655"/>
<text text-anchor="middle" x="321.781" y="-122.066" font-family="Times Roman,serif" font-size="14.00">StaticPagesController</text>
<polyline fill="none" stroke="black" points="239.281,-112.666 404.281,-112.666 "/>
<polyline fill="none" stroke="black" points="239.281,-88.6655 404.281,-88.6655 "/>
<polyline fill="none" stroke="black" points="239.281,-64.6655 404.281,-64.6655 "/>
<text text-anchor="start" x="247.281" y="-48.0655" font-family="Times Roman,serif" font-size="14.00">_layout</text>
</g>
<!-- ApplicationController&#45;&gt;StaticPagesController -->
<g id="edge2" class="edge"><title>ApplicationController&#45;&gt;StaticPagesController</title>
<path fill="none" stroke="black" d="M294.544,-161.145C297.394,-153.561 300.21,-146.067 302.888,-138.94"/>
</g>
<!-- HomeController -->
<g id="node4" class="node"><title>HomeController</title>
<polyline fill="none" stroke="black" points="59.6671,-1.5 160.667,-1.5 "/>
<path fill="none" stroke="black" d="M160.667,-1.5C166.667,-1.5 172.667,-7.5 172.667,-13.5"/>
<polyline fill="none" stroke="black" points="172.667,-13.5 172.667,-91.5 "/>
<path fill="none" stroke="black" d="M172.667,-91.5C172.667,-97.5 166.667,-103.5 160.667,-103.5"/>
<polyline fill="none" stroke="black" points="160.667,-103.5 59.6671,-103.5 "/>
<path fill="none" stroke="black" d="M59.6671,-103.5C53.6671,-103.5 47.6671,-97.5 47.6671,-91.5"/>
<polyline fill="none" stroke="black" points="47.6671,-91.5 47.6671,-13.5 "/>
<path fill="none" stroke="black" d="M47.6671,-13.5C47.6671,-7.5 53.6671,-1.5 59.6671,-1.5"/>
<text text-anchor="middle" x="110.167" y="-86.9" font-family="Times Roman,serif" font-size="14.00">HomeController</text>
<polyline fill="none" stroke="black" points="47.6671,-77.5 172.667,-77.5 "/>
<text text-anchor="start" x="55.6671" y="-60.9" font-family="Times Roman,serif" font-size="14.00">index</text>
<polyline fill="none" stroke="black" points="47.6671,-51.5 172.667,-51.5 "/>
<polyline fill="none" stroke="black" points="47.6671,-27.5 172.667,-27.5 "/>
<text text-anchor="start" x="55.6671" y="-10.9" font-family="Times Roman,serif" font-size="14.00">_layout</text>
</g>
<!-- ApplicationController&#45;&gt;HomeController -->
<g id="edge4" class="edge"><title>ApplicationController&#45;&gt;HomeController</title>
<path fill="none" stroke="black" d="M194.342,-161.445C179.088,-141.703 163.374,-121.364 149.713,-103.684"/>
</g>
<!-- StagesController -->
<g id="node5" class="node"><title>StagesController</title>
<polyline fill="none" stroke="black" points="13,-177.808 121,-177.808 "/>
<path fill="none" stroke="black" d="M121,-177.808C127,-177.808 133,-183.808 133,-189.808"/>
<polyline fill="none" stroke="black" points="133,-189.808 133,-265.808 "/>
<path fill="none" stroke="black" d="M133,-265.808C133,-271.808 127,-277.808 121,-277.808"/>
<polyline fill="none" stroke="black" points="121,-277.808 13,-277.808 "/>
<path fill="none" stroke="black" d="M13,-277.808C7,-277.808 1,-271.808 1,-265.808"/>
<polyline fill="none" stroke="black" points="1,-265.808 1,-189.808 "/>
<path fill="none" stroke="black" d="M1,-189.808C1,-183.808 7,-177.808 13,-177.808"/>
<text text-anchor="middle" x="67" y="-261.208" font-family="Times Roman,serif" font-size="14.00">StagesController</text>
<polyline fill="none" stroke="black" points="1,-251.808 133,-251.808 "/>
<polyline fill="none" stroke="black" points="1,-227.808 133,-227.808 "/>
<polyline fill="none" stroke="black" points="1,-203.808 133,-203.808 "/>
<text text-anchor="start" x="9" y="-187.208" font-family="Times Roman,serif" font-size="14.00">_layout</text>
</g>
<!-- ApplicationController&#45;&gt;StagesController -->
<g id="edge6" class="edge"><title>ApplicationController&#45;&gt;StagesController</title>
<path fill="none" stroke="black" d="M142.547,-235.876C139.389,-235.539 136.264,-235.205 133.185,-234.876"/>
</g>
</g>
</svg>
