<?xml version="1.0" encoding="UTF-8" standalone="no"?>
<!DOCTYPE svg PUBLIC "-//W3C//DTD SVG 1.1//EN"
 "http://www.w3.org/Graphics/SVG/1.1/DTD/svg11.dtd">
<!-- Generated by graphviz version 2.26.3 (20100126.1600)
 -->
<!-- Title: models_diagram Pages: 1 -->
<svg width="581pt" height="606pt"
 viewBox="0.00 0.00 581.00 606.00" xmlns="http://www.w3.org/2000/svg" xmlns:xlink="http://www.w3.org/1999/xlink">
<g id="graph1" class="graph" transform="scale(1 1) rotate(0) translate(4 602)">
<title>models_diagram</title>
<polygon fill="white" stroke="white" points="-4,5 -4,-602 578,-602 578,5 -4,5"/>
<!-- _diagram_info -->
<g id="node1" class="node"><title>_diagram_info</title>
<text text-anchor="start" x="8" y="-581.8" font-family="Times Roman,serif" font-size="13.00">Models diagram</text>
<text text-anchor="start" x="8" y="-564.8" font-family="Times Roman,serif" font-size="13.00">Date: May 20 2014 &#45; 07:30</text>
<text text-anchor="start" x="8" y="-547.8" font-family="Times Roman,serif" font-size="13.00">Migration version: 20140428095655</text>
<text text-anchor="start" x="8" y="-530.8" font-family="Times Roman,serif" font-size="13.00">Generated by RailRoady 1.1.1</text>
<text text-anchor="start" x="8" y="-513.8" font-family="Times Roman,serif" font-size="13.00">http://railroady.prestonlee.com</text>
</g>
<!-- Member -->
<g id="node2" class="node"><title>Member</title>
<polyline fill="none" stroke="black" points="141,-1 371,-1 "/>
<path fill="none" stroke="black" d="M371,-1C377,-1 383,-7 383,-13"/>
<polyline fill="none" stroke="black" points="383,-13 383,-455 "/>
<path fill="none" stroke="black" d="M383,-455C383,-461 377,-467 371,-467"/>
<polyline fill="none" stroke="black" points="371,-467 141,-467 "/>
<path fill="none" stroke="black" d="M141,-467C135,-467 129,-461 129,-455"/>
<polyline fill="none" stroke="black" points="129,-455 129,-13 "/>
<path fill="none" stroke="black" d="M129,-13C129,-7 135,-1 141,-1"/>
<text text-anchor="middle" x="256" y="-450.4" font-family="Times Roman,serif" font-size="14.00">Member</text>
<polyline fill="none" stroke="black" points="129,-441 383,-441 "/>
<text text-anchor="start" x="137" y="-424.4" font-family="Times Roman,serif" font-size="14.00">id :integer</text>
<text text-anchor="start" x="137" y="-406.4" font-family="Times Roman,serif" font-size="14.00">email :string</text>
<text text-anchor="start" x="137" y="-388.4" font-family="Times Roman,serif" font-size="14.00">encrypted_password :string</text>
<text text-anchor="start" x="137" y="-370.4" font-family="Times Roman,serif" font-size="14.00">reset_password_token :string</text>
<text text-anchor="start" x="137" y="-352.4" font-family="Times Roman,serif" font-size="14.00">reset_password_sent_at :datetime</text>
<text text-anchor="start" x="137" y="-334.4" font-family="Times Roman,serif" font-size="14.00">remember_created_at :datetime</text>
<text text-anchor="start" x="137" y="-316.4" font-family="Times Roman,serif" font-size="14.00">sign_in_count :integer</text>
<text text-anchor="start" x="137" y="-298.4" font-family="Times Roman,serif" font-size="14.00">current_sign_in_at :datetime</text>
<text text-anchor="start" x="137" y="-280.4" font-family="Times Roman,serif" font-size="14.00">last_sign_in_at :datetime</text>
<text text-anchor="start" x="137" y="-262.4" font-family="Times Roman,serif" font-size="14.00">current_sign_in_ip :string</text>
<text text-anchor="start" x="137" y="-244.4" font-family="Times Roman,serif" font-size="14.00">last_sign_in_ip :string</text>
<text text-anchor="start" x="137" y="-226.4" font-family="Times Roman,serif" font-size="14.00">created_at :datetime</text>
<text text-anchor="start" x="137" y="-208.4" font-family="Times Roman,serif" font-size="14.00">updated_at :datetime</text>
<text text-anchor="start" x="137" y="-190.4" font-family="Times Roman,serif" font-size="14.00">confirmation_token :string</text>
<text text-anchor="start" x="137" y="-172.4" font-family="Times Roman,serif" font-size="14.00">confirmed_at :datetime</text>
<text text-anchor="start" x="137" y="-154.4" font-family="Times Roman,serif" font-size="14.00">confirmation_sent_at :datetime</text>
<text text-anchor="start" x="137" y="-136.4" font-family="Times Roman,serif" font-size="14.00">is_admin :boolean</text>
<text text-anchor="start" x="137" y="-118.4" font-family="Times Roman,serif" font-size="14.00">firstname :string</text>
<text text-anchor="start" x="137" y="-100.4" font-family="Times Roman,serif" font-size="14.00">lastname :string</text>
<text text-anchor="start" x="137" y="-82.4" font-family="Times Roman,serif" font-size="14.00">role :string</text>
<text text-anchor="start" x="137" y="-64.4" font-family="Times Roman,serif" font-size="14.00">diet_pref :string</text>
<text text-anchor="start" x="137" y="-46.4" font-family="Times Roman,serif" font-size="14.00">academic_institution :string</text>
<text text-anchor="start" x="137" y="-28.4" font-family="Times Roman,serif" font-size="14.00">grant :boolean</text>
<text text-anchor="start" x="137" y="-10.4" font-family="Times Roman,serif" font-size="14.00">diet_msg :string</text>
</g>
<!-- Stage -->
<g id="node3" class="node"><title>Stage</title>
<polyline fill="none" stroke="black" points="412.5,-181 561.5,-181 "/>
<path fill="none" stroke="black" d="M561.5,-181C567.5,-181 573.5,-187 573.5,-193"/>
<polyline fill="none" stroke="black" points="573.5,-193 573.5,-275 "/>
<path fill="none" stroke="black" d="M573.5,-275C573.5,-281 567.5,-287 561.5,-287"/>
<polyline fill="none" stroke="black" points="561.5,-287 412.5,-287 "/>
<path fill="none" stroke="black" d="M412.5,-287C406.5,-287 400.5,-281 400.5,-275"/>
<polyline fill="none" stroke="black" points="400.5,-275 400.5,-193 "/>
<path fill="none" stroke="black" d="M400.5,-193C400.5,-187 406.5,-181 412.5,-181"/>
<text text-anchor="middle" x="487" y="-270.4" font-family="Times Roman,serif" font-size="14.00">Stage</text>
<polyline fill="none" stroke="black" points="400.5,-261 573.5,-261 "/>
<text text-anchor="start" x="408.5" y="-244.4" font-family="Times Roman,serif" font-size="14.00">id :integer</text>
<text text-anchor="start" x="408.5" y="-226.4" font-family="Times Roman,serif" font-size="14.00">stage_number :integer</text>
<text text-anchor="start" x="408.5" y="-208.4" font-family="Times Roman,serif" font-size="14.00">created_at :datetime</text>
<text text-anchor="start" x="408.5" y="-190.4" font-family="Times Roman,serif" font-size="14.00">updated_at :datetime</text>
</g>
<!-- ActiveRecord::Base -->
<g id="node4" class="node"><title>ActiveRecord::Base</title>
<ellipse fill="none" stroke="black" cx="372" cy="-551" rx="104.151" ry="18.3848"/>
<text text-anchor="middle" x="372" y="-547.4" font-family="Times Roman,serif" font-size="14.00">ActiveRecord::Base</text>
</g>
<!-- ActiveRecord::Base&#45;&gt;Member -->
<g id="edge2" class="edge"><title>ActiveRecord::Base&#45;&gt;Member</title>
<path fill="none" stroke="black" d="M365.091,-532.12C359.555,-516.991 351.113,-493.92 341.324,-467.171"/>
</g>
<!-- ActiveRecord::Base&#45;&gt;Stage -->
<g id="edge4" class="edge"><title>ActiveRecord::Base&#45;&gt;Stage</title>
<path fill="none" stroke="black" d="M378.849,-532.12C396.039,-484.735 441.498,-359.428 467.682,-287.251"/>
</g>
</g>
</svg>
